#!OML:ASF H:\Male1\Project 1\Capture day 1\Session 1\Male1.ASF
:FULLY-SPECIFIED
:DEGREES
414
root 18.3412 14.2003 0.514478 223.897 63.6051 -162.396
lowerback 42.0106 -0.0287138 -8.03343
upperback 18.719 0.721288 -4.01326
thorax 1.19155 1.33525 -0.391088
lowerneck 2.70404 8.86258 11.2538
upperneck -20.037 11.4699 -13.4817
head -4.90743 6.27755 -6.59961
rclavicle -7.95139e-015 -2.3059e-014
rhumerus -19.7856 20.9778 -87.408
rradius 57.2965
rwrist -38.1808
rhand -22.0531 0.746238
rfingers 7.12502
rthumb 4.35754 -29.1889
lclavicle -7.95139e-015 -2.3059e-014
lhumerus 36.646 -2.81394 62.8165
lradius 26.2349
lwrist -2.64803
lhand -24.0527 11.1143
lfingers 7.12502
lthumb 2.42645 41.0802
rfemur -65.0574 -0.662903 34.9574
rtibia 57.6338
rfoot -19.8448 -11.6221
rtoes -27.6764
lfemur -68.4779 2.73639 -8.48184
ltibia 65.6268
lfoot -22.0704 11.4601
ltoes -10.5401
415
root 18.3835 14.3024 0.532375 221.99 63.4668 -163.376
lowerback 41.1148 -0.144842 -7.74797
upperback 18.6897 0.733745 -4.04689
thorax 1.3909 1.36064 -0.548557
lowerneck 2.55788 8.76654 11.4589
upperneck -19.5367 11.3414 -13.5297
head -4.72895 6.1869 -6.60553
rclavicle 1.11319e-014 5.64983e-015
rhumerus -19.8865 20.776 -87.3083
rradius 57.4575
rwrist -38.4102
rhand -23.178 1.40713
rfingers 7.12502
rthumb 3.27124 -28.5475
lclavicle 1.11319e-014 5.64983e-015
lhumerus 33.5534 -4.7304 62.2493
lradius 25.8269
lwrist -3.22547
lhand -25.2326 10.6356
lfingers 7.12502
lthumb 1.28695 40.6115
rfemur -62.8763 -0.855085 34.4282
rtibia 56.1058
rfoot -19.7163 -11.9355
rtoes -27.3369
lfemur -66.2381 2.19041 -8.65527
ltibia 63.8373
lfoot -21.5712 11.6462
ltoes -11.2355
416
root 18.429 14.4022 0.550406 220.085 63.2518 -164.307
lowerback 40.2375 -0.216419 -7.4359
upperback 18.6161 0.787685 -3.98452
thorax 1.54 1.39885 -0.633562
lowerneck 2.36182 8.67325 11.6112
upperneck -18.9553 11.2042 -13.6011
head -4.52062 6.09452 -6.60361
rclavicle -1.1291e-013 -5.75979e-014
rhumerus -20.0709 20.5297 -87.1573
rradius 57.5146
rwrist -38.592
rhand -24.3186 2.00793
rfingers 7.12502
rthumb 2.16971 -27.9608
lclavicle -1.1291e-013 -5.75979e-014
lhumerus 30.388 -7.16043 61.6171
lradius 25.5997
lwrist -3.4097
lhand -26.9474 10.7039
lfingers 7.12502
lthumb -0.369332 40.6834
rfemur -60.6002 -0.953992 33.8888
rtibia 54.5332
rfoot -19.67 -12.3421
rtoes -27.0137
lfemur -63.9543 1.66699 -8.81364
ltibia 62.0375
lfoot -21.0704 11.8063
ltoes -12.0734
417
root 18.4777 14.499 0.566391 218.242 62.964 -165.163
lowerback 39.2116 -0.298438 -7.02354
upperback 18.6227 0.864917 -3.89239
thorax 1.66094 1.44299 -0.710818
lowerneck 2.10973 8.59159 11.764
upperneck -18.2673 11.073 -13.7126
head -4.26772 6.00462 -6.60575
rclavicle -1.43125e-014 -3.85642e-014
rhumerus -20.3184 20.1733 -86.9894
rradius 57.4827
rwrist -38.6786
rhand -25.3124 2.56123
rfingers 7.12502
rthumb 1.20987 -27.4151
lclavicle -1.43125e-014 -3.85642e-014
lhumerus 27.2186 -9.921 61.1114
lradius 25.5317
lwrist -3.23091
lhand -28.5987 11.2034
lfingers 7.12502
lthumb -1.96411 41.1741
rfemur -58.2794 -0.989128 33.3682
rtibia 52.9377
rfoot -19.6818 -12.8067
rtoes -26.7073
lfemur -61.6629 1.17262 -8.95201
ltibia 60.2426
lfoot -20.607 11.8931
ltoes -12.8866
418
root 18.5298 14.5926 0.579975 216.393 62.6076 -165.993
lowerback 38.3025 -0.379407 -6.57108
upperback 18.4844 0.915616 -3.75063
thorax 1.75366 1.47887 -0.785466
lowerneck 1.84703 8.54238 11.9097
upperneck -17.513 10.9849 -13.8349
head -3.98873 5.93538 -6.60692
rclavicle 5.725e-014 8.70677e-014
rhumerus -20.6218 19.7432 -86.8319
rradius 57.3774
rwrist -38.6545
rhand -26.005 3.00876
rfingers 7.12502
rthumb 0.540899 -26.9703
lclavicle 5.725e-014 8.70677e-014
lhumerus 24.0381 -12.8252 60.7725
lradius 25.654
lwrist -2.65458
lhand -29.6565 11.909
lfingers 7.12502
lthumb -2.9857 41.8678
rfemur -55.9082 -0.993065 32.8537
rtibia 51.3465
rfoot -19.7381 -13.3235
rtoes -26.3448
lfemur -59.3363 0.679957 -9.08675
ltibia 58.4572
lfoot -20.2147 11.8678
ltoes -13.4344
419
root 18.5844 14.681 0.591517 214.497 62.2326 -166.842
lowerback 37.3946 -0.463282 -6.13584
upperback 18.3213 0.94082 -3.60223
thorax 1.83013 1.49885 -0.838971
lowerneck 1.61034 8.52792 12.0905
upperneck -16.7233 10.9424 -14.0137
head -3.69283 5.88932 -6.63154
rclavicle -4.77083e-015 -2.48481e-014
rhumerus -20.9598 19.2834 -86.6966
rradius 57.2051
rwrist -38.5427
rhand -26.3563 3.36065
rfingers 7.12502
rthumb 0.201608 -26.619
lclavicle -4.77083e-015 -2.48481e-014
lhumerus 20.8397 -15.565 60.7571
lradius 25.9027
lwrist -1.89906
lhand -29.8488 12.5318
lfingers 7.12502
lthumb -3.17145 42.488
rfemur -53.5097 -0.954862 32.3105
rtibia 49.7838
rfoot -19.8008 -13.8899
rtoes -25.8805
lfemur -56.9785 0.194922 -9.26362
ltibia 56.695
lfoot -19.8749 11.7744
ltoes -13.774
420
root 18.6416 14.7636 0.60148 212.52 61.8818 -167.742
lowerback 36.4779 -0.526419 -5.77664
upperback 18.1453 0.956832 -3.46485
thorax 1.90871 1.50821 -0.863931
lowerneck 1.45915 8.52269 12.2925
upperneck -15.9974 10.9199 -14.2109
head -3.42661 5.85544 -6.67487
rclavicle 1.59028e-014 1.59028e-014
rhumerus -21.314 18.8068 -86.597
rradius 56.9598
rwrist -38.3682
rhand -26.4208 3.65159
rfingers 7.12502
rthumb 0.139349 -26.3281
lclavicle 1.59028e-014 1.59028e-014
lhumerus 17.6205 -17.968 61.0828
lradius 26.2398
lwrist -1.10219
lhand -29.1418 12.9125
lfingers 7.12502
lthumb -2.48868 42.8777
rfemur -51.0858 -0.854358 31.714
rtibia 48.2657
rfoot -19.8615 -14.5045
rtoes -25.3162
lfemur -54.5807 -0.269033 -9.51646
ltibia 54.9646
lfoot -19.5704 11.6633
ltoes -14.0204
421
root 18.7018 14.8393 0.610124 210.519 61.555 -168.639
lowerback 35.535 -0.570155 -5.52208
upperback 17.9649 0.957262 -3.32412
thorax 2.00507 1.49967 -0.827483
lowerneck 1.42617 8.52554 12.4743
upperneck -15.4049 10.9139 -14.4321
head -3.21791 5.83688 -6.73712
rclavicle -9.54166e-015 -5.36719e-014
rhumerus -21.6655 18.4453 -86.5215
rradius 56.633
rwrist -38.1718
rhand -26.3256 3.92217
rfingers 7.12502
rthumb 0.23125 -26.0575
lclavicle -9.54166e-015 -5.36719e-014
lhumerus 14.3521 -19.8564 61.7514
lradius 26.6319
lwrist -0.331776
lhand -27.6711 13.0716
lfingers 7.12502
lthumb -1.06821 43.0487
rfemur -48.6481 -0.679572 31.1049
rtibia 46.8005
rfoot -19.9285 -15.1681
rtoes -24.7063
lfemur -52.1638 -0.702423 -9.80893
ltibia 53.2808
lfoot -19.3046 11.5446
ltoes -14.1645
422
root 18.7646 14.9072 0.617685 208.532 61.2202 -169.502
lowerback 34.5618 -0.602597 -5.32664
upperback 17.7884 0.950614 -3.17073
thorax 2.1283 1.4805 -0.745368
lowerneck 1.4831 8.51865 12.6338
upperneck -14.9421 10.8993 -14.6684
head -3.06458 5.82049 -6.81343
rclavicle -3.65764e-014 2.70347e-014
rhumerus -22.0126 18.2088 -86.4656
rradius 56.2236
rwrist -37.9763
rhand -26.1951 4.18787
rfingers 7.12502
rthumb 0.357294 -25.7916
lclavicle -3.65764e-014 2.70347e-014
lhumerus 11.0794 -21.2442 62.6913
lradius 27.0714
lwrist 0.447483
lhand -25.6955 13.104
lfingers 7.12502
lthumb 0.839883 43.0821
rfemur -46.2102 -0.450861 30.5264
rtibia 45.3935
rfoot -20.0226 -15.8822
rtoes -24.1284
lfemur -49.752 -1.13392 -10.0984
ltibia 51.6496
lfoot -19.0747 11.4345
ltoes -14.2608
423
root 18.8305 14.9684 0.623605 206.605 60.9135 -170.312
lowerback 33.5286 -0.601712 -5.18718
upperback 17.6084 0.964049 -3.01075
thorax 2.28058 1.4635 -0.632313
lowerneck 1.56919 8.49177 12.7508
upperneck -14.5486 10.8616 -14.8806
head -2.94447 5.79553 -6.88214
rclavicle -3.81667e-014 -1.94809e-014
rhumerus -22.3584 17.9779 -86.4414
rradius 55.7328
rwrist -37.7178
rhand -26.1007 4.44083
rfingers 7.12502
rthumb 0.448488 -25.5384
lclavicle -3.81667e-014 -1.94809e-014
lhumerus 7.82541 -22.1577 63.8463
lradius 27.5468
lwrist 1.20002
lhand -23.5125 13.0904
lfingers 7.12502
lthumb 2.94821 43.0498
rfemur -43.7958 -0.156499 29.9894
rtibia 44.0411
rfoot -20.1644 -16.6198
rtoes -23.656
lfemur -47.358 -1.53832 -10.3827
ltibia 50.0713
lfoot -18.8918 11.3661
ltoes -14.4892
424
root 18.8988 15.024 0.62668 204.677 60.6038 -171.139
lowerback 32.4758 -0.590518 -5.07203
upperback 17.4105 0.97584 -2.85462
thorax 2.43259 1.44196 -0.510754
lowerneck 1.62727 8.44689 12.8077
upperneck -14.1478 10.8033 -15.0261
head -2.82938 5.75901 -6.92005
rclavicle -4.13472e-014 6.48038e-014
rhumerus -22.738 17.7534 -86.4646
rradius 55.1577
rwrist -37.3808
rhand -26.0884 4.67587
rfingers 7.12502
rthumb 0.460398 -25.3034
lclavicle -4.13472e-014 6.48038e-014
lhumerus 4.60036 -22.6482 65.135
lradius 28.0581
lwrist 1.89631
lhand -21.3938 13.0633
lfingers 7.12502
lthumb 4.99416 42.9844
rfemur -41.4133 0.134564 29.4713
rtibia 42.7404
rfoot -20.3706 -17.3492
rtoes -23.2185
lfemur -44.9913 -2.0031 -10.6782
ltibia 48.5447
lfoot -18.7547 11.3902
ltoes -14.9777
425
root 18.9693 15.0753 0.625169 202.821 60.2878 -171.927
lowerback 31.0357 -0.607264 -4.88059
upperback 17.274 0.992438 -2.72354
thorax 2.83574 1.42359 -0.454612
lowerneck 1.62485 8.38787 12.7958
upperneck -13.6799 10.7326 -15.0546
head -2.69938 5.71057 -6.9053
rclavicle -1.59028e-014 2.8625e-014
rhumerus -23.1568 17.4363 -86.5427
rradius 54.5182
rwrist -36.9874
rhand -26.092 4.86686
rfingers 7.12502
rthumb 0.456881 -25.1124
lclavicle -1.59028e-014 2.8625e-014
lhumerus 1.4316 -22.6466 66.5429
lradius 28.5469
lwrist 2.37382
lhand -19.559 12.9812
lfingers 7.12502
lthumb 6.76553 42.8531
rfemur -39.0783 0.399732 29.0009
rtibia 41.4823
rfoot -20.6362 -18.0301
rtoes -22.6826
lfemur -42.6745 -2.52899 -10.9618
ltibia 47.0741
lfoot -18.6595 11.5103
ltoes -15.7364
426
root 19.0413 15.1226 0.618164 201.135 59.9723 -172.588
lowerback 29.959 -0.584237 -4.67279
upperback 16.9751 1.00731 -2.59684
thorax 2.92872 1.40479 -0.416459
lowerneck 1.54381 8.3203 12.7863
upperneck -13.089 10.6554 -15.0095
head -2.52678 5.65058 -6.85898
rclavicle 4.92986e-014 -4.57205e-014
rhumerus -23.622 16.9845 -86.6885
rradius 53.8244
rwrist -36.5578
rhand -26.0441 4.96134
rfingers 7.12502
rthumb 0.503199 -25.0178
lclavicle 4.92986e-014 -4.57205e-014
lhumerus -1.66247 -22.2569 67.9284
lradius 29.0478
lwrist 2.70796
lhand -18.1223 12.8586
lfingers 7.12502
lthumb 8.15229 42.6814
rfemur -36.8125 0.657399 28.6134
rtibia 40.2634
rfoot -20.9541 -18.6478
rtoes -21.9376
lfemur -40.4373 -3.09556 -11.1942
ltibia 45.6706
lfoot -18.5917 11.713
ltoes -16.6798
427
root 19.1134 15.1655 0.605776 199.61 59.6749 -173.135
lowerback 28.8762 -0.552879 -4.40796
upperback 16.6203 1.02518 -2.48834
thorax 2.96817 1.38801 -0.433388
lowerneck 1.39694 8.25159 12.7738
upperneck -12.3692 10.5822 -14.8864
head -2.31109 5.58487 -6.77981
rclavicle 1.98785e-014 -5.1684e-014
rhumerus -24.1416 16.4142 -86.8944
rradius 53.0878
rwrist -36.1181
rhand -25.9421 4.96819
rfingers 7.12502
rthumb 0.60166 -25.0107
lclavicle 1.98785e-014 -5.1684e-014
lhumerus -4.647 -21.511 69.2397
lradius 29.5403
lwrist 2.90941
lhand -17.1434 12.7346
lfingers 7.12502
lthumb 9.09699 42.5184
rfemur -34.6237 0.933 28.2909
rtibia 39.0807
rfoot -21.304 -19.2202
rtoes -21.0009
lfemur -38.2918 -3.70291 -11.3863
ltibia 44.3489
lfoot -18.5453 11.9802
ltoes -17.6045
428
root 19.1849 15.2037 0.588056 198.205 59.4074 -173.611
lowerback 27.7908 -0.501718 -4.09647
upperback 16.2159 1.06105 -2.40445
thorax 2.96197 1.38099 -0.509567
lowerneck 1.19214 8.17004 12.8229
upperneck -11.5307 10.495 -14.7449
head -2.05141 5.50574 -6.69871
rclavicle 7.95139e-015 3.18055e-015
rhumerus -24.7123 15.7103 -87.1453
rradius 52.3117
rwrist -35.6663
rhand -25.7947 4.90717
rfingers 7.12502
rthumb 0.744058 -25.0713
lclavicle 7.95139e-015 3.18055e-015
lhumerus -7.47231 -20.5179 70.426
lradius 30.0216
lwrist 3.03327
lhand -16.6579 12.6403
lfingers 7.12502
lthumb 9.5654 42.4032
rfemur -32.5126 1.24326 28.0044
rtibia 37.9362
rfoot -21.6715 -19.7761
rtoes -20.0571
lfemur -36.2418 -4.35994 -11.5663
ltibia 43.1207
lfoot -18.5273 12.3039
ltoes -18.3162
